          <svg xmlns="http://www.w3.org/2000/svg" xmlns:xlink="http://www.w3.org/1999/xlink" version="1.1" x="0px" y="0px" viewBox="0 0 100 75.951" enable-background="new 0 0 100 75.951" xml:space="preserve" style="fill: rgb(0, 0, 0); width: 50px; margin:20px;" role="img" aria-label="Quotation Mark">
            <g id="__id13_s6iyjz5wws">
              <path d="M25.877,32.528c-4.73,0-9.083,1.576-12.601,4.201c0.346-10.957,8.816-21.918,25.528-32.881L36.324,0   C12.109,15.045,0,31.557,0,49.533c0,8.255,2.246,14.724,6.742,19.397c4.493,4.682,10.182,7.017,17.061,7.017   c6.883,0,12.429-1.878,16.65-5.64c4.218-3.757,6.33-8.302,6.33-13.619c0-0.06-0.011-0.104-0.011-0.168   c0.129-0.943,0.22-1.896,0.22-2.881C46.992,41.983,37.535,32.528,25.877,32.528z" style="fill: rgb(245, 245, 239);"></path>
              <path d="M94.146,68.216c0.273-0.316,0.604-0.617,0.855-0.947C98.111,63.59,100,58.841,100,53.64   c0-11.656-9.455-21.114-21.113-21.114c-5.34,0-10.201,1.998-13.921,5.27c0-0.13-0.021-0.24-0.021-0.374   c0-11.189,8.529-22.384,25.594-33.576L88.061,0C63.843,15.045,51.734,31.557,51.734,49.537c0,8.255,2.246,14.723,6.744,19.396   c4.492,4.682,10.18,7.02,17.059,7.02s12.432-1.881,16.65-5.645c0.597-0.525,1.06-1.115,1.571-1.678   C93.893,68.496,94.014,68.356,94.146,68.216z" style="fill: rgb(245, 245, 239);"></path>
            </g>
            </svg>